<svg id="Icons" fill="white" height="512" viewBox="0 0 74 74" width="512" xmlns="http://www.w3.org/2000/svg"><path d="m21.2 60.788a1 1 0 0 1 -.775-.367c-5.631-6.881-11.044-19.572-10.49-30.513a1 1 0 0 1 .634-.881l26.067-10.2a1 1 0 0 1 .728 0l26.067 10.2a1 1 0 0 1 .634.881c.554 10.949-4.865 23.638-10.5 30.514a1 1 0 1 1 -1.546-1.269c5.155-6.285 10.358-18.3 10.079-28.5l-25.098-9.821-25.093 9.819c-.279 10.191 4.918 22.212 10.068 28.5a1 1 0 0 1 -.773 1.634z"/><path d="m62.353 39.651a1 1 0 0 1 -.362-.068l-24.991-9.683-24.991 9.683a1 1 0 0 1 -.723-1.865l25.353-9.826a1 1 0 0 1 .722 0l25.353 9.826a1 1 0 0 1 -.361 1.933z"/><path d="m59.662 62.489a13.329 13.329 0 0 1 -6.062-1.295 11.492 11.492 0 0 0 -5.276-1.133 11.472 11.472 0 0 0 -5.271 1.133 13.321 13.321 0 0 1 -6.06 1.295 13.326 13.326 0 0 1 -6.061-1.295 11.478 11.478 0 0 0 -5.273-1.133 11.468 11.468 0 0 0 -5.271 1.133 13.32 13.32 0 0 1 -6.059 1.295 13.3 13.3 0 0 1 -6.059-1.295 11.47 11.47 0 0 0 -5.27-1.133 1 1 0 0 1 0-2 13.311 13.311 0 0 1 6.058 1.3 11.476 11.476 0 0 0 5.27 1.133 11.484 11.484 0 0 0 5.272-1.138 13.313 13.313 0 0 1 6.059-1.3 13.323 13.323 0 0 1 6.061 1.3 11.491 11.491 0 0 0 5.273 1.133 11.486 11.486 0 0 0 5.272-1.133 13.313 13.313 0 0 1 6.059-1.3 13.348 13.348 0 0 1 6.063 1.294 12.843 12.843 0 0 0 10.551 0 13.329 13.329 0 0 1 6.062-1.289 1 1 0 0 1 0 2 11.492 11.492 0 0 0 -5.276 1.133 13.327 13.327 0 0 1 -6.062 1.295z"/><path d="m59.662 70.989a13.329 13.329 0 0 1 -6.063-1.3 11.492 11.492 0 0 0 -5.276-1.133 11.472 11.472 0 0 0 -5.271 1.133 13.321 13.321 0 0 1 -6.06 1.3 13.326 13.326 0 0 1 -6.061-1.3 11.478 11.478 0 0 0 -5.273-1.133 11.468 11.468 0 0 0 -5.271 1.133 13.32 13.32 0 0 1 -6.059 1.3 13.3 13.3 0 0 1 -6.058-1.3 11.47 11.47 0 0 0 -5.27-1.128 1 1 0 0 1 0-2 13.311 13.311 0 0 1 6.058 1.295 11.476 11.476 0 0 0 5.27 1.133 11.484 11.484 0 0 0 5.272-1.133 13.313 13.313 0 0 1 6.059-1.295 13.323 13.323 0 0 1 6.061 1.295 11.491 11.491 0 0 0 5.273 1.133 11.486 11.486 0 0 0 5.272-1.133 13.313 13.313 0 0 1 6.059-1.295 13.348 13.348 0 0 1 6.063 1.294 12.843 12.843 0 0 0 10.551 0 13.329 13.329 0 0 1 6.062-1.294 1 1 0 0 1 0 2 11.492 11.492 0 0 0 -5.276 1.133 13.327 13.327 0 0 1 -6.062 1.295z"/><path d="m37 62.487a1 1 0 0 1 -1-1v-41.729a1 1 0 1 1 2 0v41.729a1 1 0 0 1 -1 1z"/><path d="m52.794 26.934a1 1 0 0 1 -1-1v-11.168a1.18 1.18 0 0 0 -1.178-1.179h-27.232a1.18 1.18 0 0 0 -1.178 1.179v11.168a1 1 0 0 1 -2 0v-11.168a3.182 3.182 0 0 1 3.178-3.179h27.232a3.182 3.182 0 0 1 3.178 3.179v11.168a1 1 0 0 1 -1 1z"/><path d="m40.608 13.587h-7.216a1 1 0 0 1 -1-1v-8.576a1 1 0 0 1 1-1h7.216a1 1 0 0 1 1 1v8.576a1 1 0 0 1 -1 1zm-6.216-2h5.216v-6.576h-5.216z"/></svg>